<svg width="512" height="512" viewBox="0 0 512 512" fill="none" xmlns="http://www.w3.org/2000/svg">
<path d="M317.471 114.757C331.926 126.793 341.076 144.53 343.266 168.765C367.657 171.46 386.269 180.538 398.209 196.006C398.367 216.885 392.136 232.335 382.549 243.779H381.719C373.048 229.396 361.118 217.624 345.498 210.42C344.935 196.857 340.746 185.427 335.651 176.416C326.066 171.136 314.3 167.412 300.864 166.245C294.345 150.965 282.612 139.834 269.25 131.363L269.101 130.586C280.971 121.15 296.43 114.967 317.471 114.757Z" fill="white"/>
<path d="M105.399 202.167C106.222 224.449 114.291 240.004 125.231 252.132C125.461 253.331 123.083 255.345 123.371 256.918C123.534 257.807 125.489 260.057 125.231 261.166C114.333 273.226 106.271 288.702 105.471 310.963H104.767C83.649 299.419 70.7096 279.387 60.1392 257.267V256.335C70.7585 233.999 83.4375 212.851 105.399 202.167Z" fill="white"/>
<path d="M406.81 202.188C428.588 213.191 441.504 234.143 451.861 256.823C441.458 279.175 428.5 299.972 406.787 310.963C405.518 288.888 397.797 272.989 386.683 260.685C386.622 260.254 388.952 257.084 388.854 256.065C388.801 255.51 386.646 253.25 386.997 252.032C397.944 239.846 405.576 224.026 406.81 202.188Z" fill="white"/>
<path d="M256.331 62.9163C278.151 73.2613 298.79 85.3428 310.332 105.914L310.06 106.621C288.691 107.988 272.858 115.627 260.802 126.149C259.653 126.265 256.924 124.121 256.35 124.056C254.757 123.875 252.488 126.428 251.194 126.149C239.147 115.541 222.818 108.13 201.94 106.461C201.033 105.679 206.08 98.5496 206.559 97.9033C214.942 86.6331 229.532 76.6066 241.816 69.7393C243.689 68.6909 254.588 62.7117 256.331 62.9163Z" fill="white"/>
<path d="M254.137 384.908L258.021 384.889C270.775 396.339 286.827 405.21 309.93 406.553L310.353 406.956C297.7 426.244 278.416 439.471 256.113 449.089C233.77 439.495 214.166 426.344 201.851 406.76C224.692 404.977 241.362 396.708 254.137 384.908Z" fill="white"/>
<path d="M185.995 111.033C172.848 122.917 163.942 139.748 160.574 161.196C138.877 164.597 122.488 173.736 110.265 186.575C101.754 165.264 109.691 134.422 117.613 118.033C134.953 111.17 163.759 103.071 185.995 111.033Z" fill="white"/>
<path d="M394.612 118.265C402.172 135.236 410.116 164.981 401.71 186.614C389.793 173.254 372.574 164.699 351.105 161.101C348.239 139.306 338.789 122.861 326.061 110.85C348.732 103.243 377.214 111.256 394.612 118.265Z" fill="white"/>
<path d="M251.347 202.725C224.306 206.049 206.587 224.914 203.244 252.148C200.531 252.078 197.176 251.569 194.856 250.688C172.697 239.476 170.142 207.067 182.663 182.872C207.838 168.384 246.695 173.835 251.347 202.725Z" fill="white"/>
<path d="M329.453 183.241C342.123 207.404 339.01 240.157 316.411 250.946C314.41 251.844 311.029 251.804 308.702 252.169C305.464 225.202 287.792 205.914 260.79 202.864C264.816 173.912 305.157 167.973 329.453 183.241Z" fill="white"/>
<path d="M111.078 327.701H112.02C123.65 340.146 140.721 347.838 161.587 351.179C164.74 372.05 173.118 389.095 185.674 400.628V401.355C163.154 407.604 137.241 400.646 120.233 393.919C112.004 378.234 105.078 350.749 111.078 327.701Z" fill="white"/>
<path d="M401.059 326.804C406.501 350.144 400.364 378.034 391.948 393.988C374.987 400.767 348.364 407.646 326.087 401.116C338.656 389.262 347.323 372.634 350.415 351.321C371.574 347.778 389.135 339.75 401.059 326.804Z" fill="white"/>
<path d="M308.912 260.285C337.083 263.693 343.634 302.081 329.69 326.374C304.697 340.543 268.88 337.037 260.297 310.136C288.324 306.649 305.034 287.942 308.912 260.285Z" fill="white"/>
<path d="M203.081 260.75C202.721 261.228 203.742 260.747 203.353 261.191C206.462 287.737 224.711 307.428 251.696 310.078C243.622 337.019 207.182 340.592 182.382 326.29C169.552 302.687 173.783 272.008 195.554 261.738C197.535 260.901 200.31 260.615 203.081 260.75Z" fill="white"/>
<path d="M381.901 268.654H382.073C391.602 280.528 398.541 295.648 398.223 317.147C382.614 337.595 349.603 347.843 313.068 342.115V341.736C321.465 339.825 329.044 336.724 335.874 333.218C340.835 325.291 344.233 314.55 345.384 302.618C361.59 295.425 372.955 283.109 381.901 268.654Z" fill="white"/>
<path d="M129.697 269.119H130.497C138.901 283.867 151.001 295.146 166.479 302.829C167.764 313.735 171.086 324.484 175.401 332.235C177.719 335.117 191.102 339.571 195.321 340.899C195.391 340.922 199.776 341.775 198.925 342.115C162.65 347.91 129.837 337.516 114.024 317.589C113.368 296.029 120.173 280.805 129.697 269.119Z" fill="white"/>
<path d="M194.566 169.121C187.861 170.897 181.627 173.424 176.363 176.623C171 185.619 167.288 197.424 166.365 210.671C150.489 217.775 139.049 229.589 130.229 243.779H129.506C120.045 232.142 113.654 217.101 113.84 195.825C128.949 176.509 159.012 164.386 194.566 169.121Z" fill="white"/>
<path d="M210.625 347.461H212.094C219.947 361.784 231.929 372.324 246.116 380.31V380.686C233.672 390.585 218.248 398.401 195.777 397.908C182.515 387.772 174.018 372.013 170.796 352.227C185.472 352.99 200.043 351.532 210.625 347.461Z" fill="white"/>
<path d="M300.059 347.461C311.722 350.863 325.847 353.266 341.197 352.227C338.259 372.241 329.474 387.577 316.439 397.966C294.02 398.489 278.704 390.697 266.341 380.868V380.3C280.273 372.18 292.295 361.782 300.059 347.461Z" fill="white"/>
<path d="M194.624 114.725C215.267 114.932 231.131 121.204 242.862 130.652V131.261C230.146 139.511 218.854 149.44 212.308 163.809H210.853C200.022 159.852 184.295 158.258 170.098 159.91C172.897 139.662 182.08 125.291 194.624 114.725Z" fill="white"/>
<path d="M166.758 220.3C168.285 237.67 176.363 248.67 187.308 256.533C176.08 264.29 168.376 275.704 166.627 292.893C151.807 285.492 140.902 271.483 133.135 256.268C141.19 241.587 151.08 227.29 166.758 220.3Z" fill="white"/>
<path d="M345.149 220.018C360.672 227.818 370.954 241.171 378.879 256.593C370.791 271.62 360.625 284.948 345.549 293.091C343.562 276.102 336.111 263.732 324.415 256.381C335.799 248.956 343.576 237.216 345.149 220.018Z" fill="white"/>
<path d="M255.901 322.355H256.269C264.024 333.548 276.047 340.989 292.441 343.479C284.188 358.069 271.23 368.361 255.864 375.823C240.879 368.105 227.649 358.153 219.787 343.261C236.39 341.036 248.037 333.369 255.901 322.355Z" fill="white"/>
<path d="M255.764 133.834C270.147 141.522 284.411 151.214 291.216 166.81C274.701 169.388 263.185 177.211 256.02 189.22C249.187 177.218 237.148 169.435 220.777 166.745C227.458 151.321 241.467 141.924 255.764 133.834Z" fill="white"/>
<path d="M280.987 251.679L299.934 251.799C300.055 254.233 300.268 258.72 299.808 261.215H290.983V283.741C288.312 287.189 284.99 290.332 281.613 293.063H280.987V251.679Z" fill="white"/>
<path d="M212.408 251.683H230.704C231.366 264.795 230.834 279.361 231.006 293.063C229.153 292.989 221.075 284.127 220.933 283.495L220.777 261.215H212.408V251.683Z" fill="white"/>
<path d="M274.362 215.657C290.072 221.936 276.484 221.711 274.078 230.412L269.401 234.713C268.624 234.706 262.622 228.013 262.622 228.013C262.61 227.955 262.622 227.081 262.622 227.081L274.362 215.657Z" fill="white"/>
<path d="M292.139 230.528C292.685 230.998 296.593 238.89 296.593 238.951C296.593 240.036 288.338 242.282 286.915 243.152C286.336 243.507 283.403 247.348 282.566 247.266C282.566 247.266 276.017 241.189 275.989 241.141C274.764 240.641 280.25 235.84 280.532 235.645C281.194 235.187 292.023 230.491 292.139 230.528Z" fill="white"/>
<path d="M237.734 215.766C238.935 217.317 249.71 226.711 249.604 227.794C248.616 228.485 243.436 234.98 242.488 234.713C242.406 234.69 237.338 229.498 237.329 229.482C237.759 226.86 229.874 221.188 229.806 220.497C229.723 219.639 236.743 215.334 237.734 215.766Z" fill="white"/>
<path d="M219.64 230.761H220.514C220.514 230.761 230.785 235.21 231.122 235.429C239.584 243.131 235.379 240.346 229.555 247.266C228.632 247.527 225.501 243.365 224.773 242.9C213.568 238.144 214.003 241.868 219.64 230.761Z" fill="white"/>
<path d="M250.998 286.786H260.762V301.146C258.265 301.588 253.495 301.623 250.998 301.151V286.786Z" fill="white"/>
<path d="M268.543 246.801H268.982C277.405 256.093 278.258 250.972 269.254 260.517H268.776C260.483 251.446 259.865 255.933 268.543 246.801Z" fill="white"/>
<path d="M242.739 272.373H243.257C251.196 281.107 251.826 277.146 243.45 285.857H242.506C233.921 276.769 234.509 281.421 242.739 272.373Z" fill="white"/>
<path d="M255.706 233.783H256.25C264.716 242.791 264.379 238.47 256.222 247.266H255.569C247.609 238.8 247.046 242.356 255.706 233.783Z" fill="white"/>
<path d="M242.739 246.801H243.217C251.665 255.912 251.854 251.427 243.129 260.285H242.46C233.953 251.486 234.834 255.426 242.739 246.801Z" fill="white"/>
<path d="M255.996 259.392C263.761 268 265.267 263.883 256.468 272.838H255.524C246.679 263.697 247.992 268.131 255.996 259.392Z" fill="white"/>
<path d="M275.64 279.006V279.703C266.772 288.244 271.007 287.279 262.389 279.457V278.917C271.091 270.123 267.116 271.243 275.64 279.006Z" fill="white"/>
<path d="M261.692 211.759C261.804 213.058 261.488 215.134 261.295 216.157C254.227 222.868 257.589 222.692 250.533 215.885C250.671 214.334 250.303 212.942 250.241 211.735C251.391 211.338 261.278 211.345 261.692 211.759Z" fill="white"/>
</svg>
